<svg width="65" height="68" viewBox="0 0 65 68" fill="none" xmlns="http://www.w3.org/2000/svg">
    <g clip-path="url(#clip0_1272_5)">
        <path
            d="M-0.000580402 39.4327C0.280965 38.8706 0.416458 38.2818 0.476287 37.645C0.583626 36.4798 0.840536 35.3413 1.48105 34.3326C1.75028 33.9093 2.04766 33.5037 2.30281 33.0714C2.63187 32.5146 3.08938 32.1215 3.65423 31.8297C3.95513 31.675 4.23316 31.4633 4.54286 31.3352C5.03556 31.1324 5.53706 30.9225 6.0544 30.8176C7.11372 30.6023 8.04282 30.1007 8.94024 29.5439C9.48925 29.2023 10.0066 29.0547 10.6313 29.2788C11.2999 29.519 11.9721 29.3073 12.639 29.213C13.13 29.1436 13.6227 29.0814 14.1154 29.012C14.2333 28.996 14.3565 28.9889 14.4656 28.9462C15.7255 28.4463 16.9889 28.5655 18.2629 28.8946C18.8401 29.044 19.4278 29.1828 20.019 29.2308C20.9059 29.3037 21.5499 29.7431 22.0902 30.4049C22.3805 30.7624 22.6621 31.1271 22.9718 31.4686C23.0967 31.6074 23.2832 31.6892 23.4152 31.7782C23.7706 31.6198 23.9079 31.3672 23.8956 31.0737C23.8551 30.0971 23.9888 29.1472 24.2528 28.2097C24.2933 28.0656 24.2457 27.8966 24.2369 27.6867C23.6915 27.3932 23.146 27.1068 22.6075 26.8079C22.1553 26.5571 21.6784 26.3347 21.2737 26.0181C20.6754 25.5503 20.0314 25.2069 19.2976 25.0664C18.467 24.9063 17.7579 24.5043 17.1191 23.9866C16.7866 23.7162 16.505 23.3515 16.2833 22.9797C16.0581 22.6008 15.78 22.3162 15.4175 22.0903C14.8914 21.763 14.3635 21.4374 13.8602 21.0763C13.6227 20.9073 13.3728 20.6921 13.2496 20.4377C12.9963 19.9129 12.5616 19.6817 12.0636 19.502C10.9339 19.0911 10.9058 19.0235 11.0624 17.8441C11.1099 17.4901 11.0694 17.1254 11.0694 16.775C10.8635 16.4726 10.5609 16.4797 10.26 16.4672C9.32209 16.4245 9.0247 16.0919 9.07749 15.1366C9.08805 14.9569 9.10565 14.7719 9.15844 14.6012C9.48925 13.5498 9.83239 12.5021 10.172 11.4543C10.2336 11.264 10.3198 11.0789 10.3726 10.8851C10.5556 10.2286 10.8618 9.72165 11.4636 9.30539C12.0372 8.9087 12.4895 8.2932 12.8977 7.70617C13.1969 7.2739 13.547 6.95903 13.9887 6.71177C14.9125 6.19589 15.8363 5.68001 16.7496 5.14456C17.3479 4.79412 17.9708 4.57887 18.6711 4.56998C19.5017 4.5593 20.3305 4.50416 21.1593 4.46502C21.2578 4.45969 21.3687 4.46324 21.4532 4.42055C22.465 3.92958 23.4222 4.25511 24.3267 4.68561C26.0212 5.49145 27.6841 6.36666 29.3575 7.21875C29.4966 7.28991 29.6602 7.38063 29.7306 7.50871C29.9928 7.98901 30.4503 8.1331 30.9148 8.24339C31.4815 8.37859 31.8123 8.72014 31.9636 9.27515C32.0269 9.50641 32.1343 9.72699 32.217 9.95291C32.3507 10.3229 32.5531 10.6324 32.9015 10.837C33.6142 11.2568 33.8024 11.9204 33.7233 12.7013C33.6969 12.961 33.6335 13.2225 33.6458 13.4805C33.6775 14.2187 33.5526 14.9196 33.2886 15.6062C33.088 16.1275 33.1109 16.1363 33.2992 16.6558C33.4875 16.6202 33.7145 16.6309 33.8852 16.5366C34.3339 16.2911 34.7966 16.2538 35.277 16.3516C35.5339 16.405 35.7486 16.3943 35.951 16.1435C36.1076 15.4319 35.9299 14.699 35.8173 13.9714C35.7909 13.8042 35.592 13.6566 35.4565 13.5178C35.2929 13.3506 35.1116 13.2029 34.9198 13.0304C35.1222 12.3082 35.0377 11.6482 34.7579 10.9989C34.6752 10.8068 34.6541 10.5524 34.6981 10.3478C35.0025 8.95495 35.0764 7.51049 35.585 6.16209C35.8542 5.44697 36.1041 4.72296 36.7974 4.2729C36.9487 4.17506 37.049 3.95982 37.1176 3.77659C37.3006 3.29095 37.6561 2.9921 38.0872 2.75551C38.7524 2.39083 39.4052 2.00126 40.0809 1.65971C40.4328 1.48182 40.8182 1.3573 41.2018 1.25412C42.1045 1.01041 43.009 0.773819 43.9205 0.571025C44.4396 0.455397 44.9763 0.41804 45.5042 0.339769C46.252 0.227698 46.9946 0.11207 47.7372 0H48.9337C49.8259 0.524774 50.8007 0.549678 51.7773 0.410924C52.5182 0.30597 53.1956 0.389578 53.8643 0.720452C54.3464 0.960603 54.8708 1.11359 55.3442 1.36797C56.3278 1.89808 57.3027 2.44776 58.2511 3.03657C58.4816 3.17888 58.6418 3.48841 58.7579 3.75524C58.9708 4.23733 59.189 4.66782 59.6501 4.99513C60.0689 5.29399 60.3293 5.78496 60.4155 6.32219C60.4753 6.69042 60.588 7.01774 60.8589 7.28635C61.1211 7.54607 61.1669 7.87872 61.1088 8.23984C60.9892 8.97452 60.8924 9.71276 60.7674 10.4457C60.6284 11.2515 60.3328 11.9951 59.8366 12.6479C59.3034 13.3506 58.7561 14.0426 58.223 14.7453C58.0664 14.9516 57.9414 15.1846 57.7866 15.3945C57.4786 15.8108 57.2006 16.2591 56.8399 16.622C56.2768 17.1877 55.6504 17.6893 55.0574 18.2283C54.8515 18.4151 54.621 18.6019 54.4837 18.8385C54.1986 19.3241 53.808 19.6799 53.3311 19.9485C52.8701 20.2082 52.5111 20.5729 52.1856 20.9892C51.8037 21.4784 51.4377 21.9942 50.9855 22.4087C50.5491 22.8072 50.023 23.1096 49.5127 23.4174C49.071 23.6842 49.0587 23.6628 48.8405 24.1414C49.0235 24.2766 49.217 24.4207 49.4247 24.5719C50.1321 24.2321 50.7743 23.9315 51.3005 23.3604C51.9516 22.656 52.8103 22.2166 53.7464 22.0458C54.8004 21.8537 55.8756 21.6687 56.9419 21.674C58.0928 21.6794 59.2436 21.9249 60.2959 22.4425C61.1546 22.8641 61.9781 23.3587 62.8122 23.8318C62.9477 23.9083 63.0796 24.0186 63.1711 24.1431C63.5107 24.6092 63.8609 25.0735 64.1548 25.5716C64.3219 25.8527 64.4592 26.1907 64.4821 26.5126C64.5331 27.2082 64.5014 27.9091 64.5032 28.6082C64.5032 28.6687 64.4856 28.7416 64.512 28.7878C65.0504 29.7449 64.5965 30.8176 64.8569 31.8048C65.1015 32.7281 65.0188 33.598 64.6792 34.4963C64.5208 34.9126 64.3677 35.3164 64.1073 35.665C63.7853 36.0955 63.4192 36.494 63.0849 36.9156C62.9758 37.0544 62.9072 37.2251 62.821 37.3835C62.5253 37.9296 62.286 38.5202 61.9183 39.0111C61.6666 39.3474 61.2373 39.5448 60.8871 39.8045C60.4085 40.1585 59.9281 40.5125 59.4495 40.8665C59.321 40.9608 59.2084 41.096 59.0641 41.1458C57.6933 41.6226 56.3261 42.1153 54.9377 42.5405C54.1898 42.7699 53.1288 41.9303 53.1164 41.1245C53.1076 40.557 52.951 40.0607 52.6994 39.5697C52.6009 39.3776 52.5446 39.1552 52.5146 38.94C52.4531 38.5024 52.4249 38.0612 52.3739 37.6218C52.3264 37.2038 52.2665 36.7857 52.2014 36.2805C52.0448 36.1436 51.853 35.9354 51.6243 35.7878C51.2794 35.5654 51.0752 35.2986 51.0506 34.8645C51.0365 34.6208 50.9063 34.386 50.8395 34.1797C50.447 34.1299 50.3256 34.3077 50.2711 34.5764C50.1391 35.2257 50.0177 35.8785 49.8646 36.5225C49.7045 37.1949 49.4599 37.8175 48.9355 38.3156C48.705 38.5344 48.5888 38.8759 48.4129 39.1766C48.5748 39.3242 48.6663 39.431 48.7771 39.5057C49.7045 40.1283 50.6371 40.742 51.5609 41.3664C51.7246 41.4767 51.8988 41.6065 52.0008 41.7684C52.6695 42.8233 53.6672 43.5384 54.5699 44.3532C55.0732 44.8068 55.5659 45.2729 56.0533 45.7425C56.1519 45.8368 56.2363 45.9613 56.2891 46.0876C56.817 47.3381 57.461 48.5353 57.9907 49.7823C58.1508 50.1595 58.2423 50.5917 58.2564 51.0009C58.274 51.4581 58.3374 51.8761 58.5696 52.2692C58.6717 52.4418 58.7333 52.6428 58.8477 52.8029C59.3456 53.4967 59.2489 54.2171 58.9163 54.918C58.4957 55.8057 58.0576 56.6898 57.5719 57.5437C56.6798 59.1144 55.7718 60.6763 54.8198 62.2097C54.5295 62.6775 54.0755 63.0387 53.6919 63.446C53.6373 63.5029 53.5599 63.5367 53.4983 63.5883C52.8895 64.0817 52.2085 64.224 51.4553 64.0153C50.9837 64.2359 50.4488 64.4564 49.9473 64.7357C49.613 64.9225 49.291 64.9883 48.9179 64.9314C48.2052 64.8247 47.5207 64.6326 46.8609 64.3319C46.4808 64.1576 46.2415 63.9085 46.1658 63.4958C46.1359 63.3375 46.0778 63.1828 46.062 63.0244C46.0197 62.5886 45.7435 62.3307 45.3915 62.1634C44.978 61.9678 44.5522 61.7828 44.1123 61.6707C43.4418 61.4999 42.9931 60.9983 42.4635 60.6229C42.3121 60.5144 42.2646 60.2405 42.1978 60.0341C42.1256 59.8082 42.0869 59.5716 42.0376 59.3599C41.6241 59.2051 41.5608 59.488 41.464 59.7335C41.2053 60.3863 40.9625 61.0481 40.6757 61.6885C40.4803 62.1261 40.2498 62.553 39.9824 62.9497C39.8205 63.1899 39.5882 63.4104 39.3401 63.5563C37.8074 64.4564 36.2783 65.3655 34.7122 66.2033C33.9415 66.6142 33.1109 66.9291 32.2803 67.1995C30.4098 67.8097 28.4742 68.0302 26.5122 68.0035C26.2377 68 25.9526 67.9591 25.6922 67.8755C24.4587 67.4806 23.2216 67.0928 22.0075 66.6391C21.5623 66.4719 21.1487 66.2282 20.927 65.6839C20.6543 65.0079 20.1704 64.5151 19.3856 64.3017C18.592 64.0846 18.3439 63.3215 18.1573 62.5868C18.0799 62.2791 18.0271 61.966 17.9602 61.6565C17.9092 61.4216 17.7948 61.1815 17.8124 60.952C17.8582 60.3383 17.589 59.8633 17.2599 59.3973C17.1684 59.2674 17.0681 59.1286 17.0241 58.9792C16.6475 57.6877 16.2446 56.3998 16.6176 55.023C16.7443 54.5587 16.8305 54.0784 16.8781 53.5998C17.003 52.3582 17.6048 51.2588 17.8846 50.0652C17.9075 49.9709 17.9655 49.8784 18.0289 49.8037C18.5445 49.1917 19.0653 48.5851 19.5844 47.9768C19.792 47.7331 20.0349 47.5125 20.2038 47.2421C20.6226 46.5714 21.2631 46.189 21.9036 45.7869C22.5107 45.4045 23.0721 44.9526 23.6651 44.5488C24.3038 44.1148 24.9549 43.7003 25.6429 43.252C25.4669 42.914 25.1484 42.649 24.7912 42.4426C24.6698 42.3715 24.4463 42.3412 24.3408 42.407C23.9396 42.6561 23.4222 42.8696 23.2146 43.2467C22.699 44.1842 21.8896 44.7374 21.0308 45.2479C20.4678 45.5824 20.0806 46.0235 19.8607 46.639C19.653 47.2172 19.375 47.6868 18.7204 47.927C18.3263 48.071 18.0641 48.5513 17.7016 48.8253C17.3408 49.0975 16.9344 49.3127 16.5367 49.528C16.2745 49.6703 15.9912 49.7717 15.7149 49.8873C15.495 49.9798 15.275 50.131 15.0498 50.1435C14.3881 50.179 13.8497 50.5384 13.2514 50.7412C12.3505 51.0489 11.4178 51.2784 10.4447 51.0845C10.0946 51.0151 9.73561 50.9813 9.38015 50.9333C8.63934 50.8319 7.94779 50.606 7.31432 50.1933C6.99758 49.9869 6.64917 49.8286 6.30603 49.6685C5.68311 49.3768 5.14466 48.9961 4.7065 48.4411C4.27539 47.8932 3.73341 47.436 3.30934 46.8827C2.82367 46.2477 2.41015 45.5539 1.97552 44.8779C1.71685 44.4777 1.40011 44.1806 0.939077 44.0134C0.676888 43.9173 0.46045 43.6932 0.233454 43.5331C0.309119 42.8767 0.87045 42.4017 0.655772 41.7933C0.497403 41.3486 0.219377 40.9466 -0.00585938 40.5268V39.4381L-0.000580402 39.4327ZM36.7587 45.7763C37.2602 45.8812 37.7582 45.8723 38.2069 45.6144C38.8439 45.2479 39.5336 45.0985 40.241 44.9526C41.1085 44.773 41.9092 44.4741 42.4089 43.6131C42.6306 43.2307 43.0178 42.9194 43.3873 42.6579C43.873 42.3128 44.2302 41.8858 44.561 41.3949C45.1558 40.5161 45.7716 39.648 46.8116 39.2139C47.1301 39.0805 47.4415 38.8439 47.6615 38.5753C48.0785 38.0648 48.5308 37.54 48.7789 36.9423C49.1379 36.0777 49.4792 35.1527 49.5443 34.2348C49.6024 33.4236 49.752 32.6516 49.9174 31.8724C50.1004 31.0186 50.2447 30.1718 49.8804 29.3233C49.803 29.1436 49.8065 28.9301 49.7573 28.7362C49.627 28.2346 49.5672 27.6938 49.3349 27.2455C48.6364 25.89 47.8797 24.5665 47.1231 23.243C46.9788 22.9904 46.7553 22.7556 46.516 22.5902C46.1412 22.3305 45.8948 21.9871 45.6449 21.6153C45.3933 21.2418 45.0643 20.9109 44.7317 20.6049C44.429 20.3256 44.0788 20.0944 43.7392 19.8613C43.4823 19.6852 43.2219 19.4398 42.9368 19.3953C41.9303 19.2405 41.0241 18.8723 40.1601 18.344C39.8838 18.175 39.5354 18.0611 39.2134 18.0451C38.374 18.0006 37.5593 17.8832 36.7499 17.6342C36.1657 17.4545 35.541 17.4029 34.9286 17.3318C34.721 17.3069 34.494 17.3709 34.2881 17.4385C33.7233 17.6235 33.1672 17.8334 32.6235 18.0273C32.2944 18.2764 32.0006 18.6126 31.6328 18.7513C31.0028 18.9861 30.4327 19.2939 29.9435 19.7457C29.5335 20.1246 29.1816 20.5693 28.7663 20.9411C28.1117 21.53 27.6841 22.2789 27.2688 23.0349C27.1263 23.2946 27.0014 23.5899 26.9644 23.8799C26.8782 24.5896 26.6881 25.2567 26.338 25.8793C26.25 26.0359 26.2078 26.2156 26.1409 26.3846C25.7626 27.3576 25.5145 28.3858 24.9162 29.2646C24.8317 29.3891 24.793 29.5652 24.7842 29.7218C24.7332 30.5792 24.6821 31.4366 24.6698 32.2958C24.6663 32.4968 24.8018 32.7067 24.8968 32.9006C25.0077 33.1301 25.1449 33.3471 25.2892 33.6033C25.1045 33.8097 24.9549 33.9929 24.7895 34.1583C24.3355 34.6137 24.0012 36.3677 24.2739 36.9494C24.332 37.0739 24.4129 37.2038 24.5185 37.2874C25.152 37.7944 25.247 38.4366 25.0569 39.189C24.983 39.4843 24.9162 39.8241 25.196 40.1123C25.7643 39.9593 25.8259 39.1392 26.477 39.125C26.9503 39.3687 27.0348 39.5181 26.836 39.9557C26.7145 40.2243 26.5069 40.452 26.3433 40.7029C26.162 40.9822 25.9896 41.265 25.7872 41.5888C26.1303 42.0548 26.4365 42.4675 26.7075 42.8358C26.9785 42.9016 27.1685 42.9461 27.348 42.9887L27.5099 43.5313C27.6929 43.6416 27.8495 43.7892 28.0343 43.8408C28.717 44.0312 29.3171 44.3798 29.9118 44.7499C30.1828 44.9188 30.4697 45.0629 30.7459 45.2213C31.17 45.4632 31.6117 45.6108 32.1114 45.5948C32.4457 45.5859 32.7871 45.6268 33.1197 45.6838C33.7444 45.7923 34.3638 45.9275 34.948 46.0449C35.3228 45.8563 35.3668 45.5272 35.4407 45.2141C35.5445 44.7659 35.768 44.4403 36.266 44.4119C36.8572 44.6947 36.4736 45.312 36.7604 45.7798L36.7587 45.7763ZM27.1967 67.3311C27.7703 67.2173 28.2947 67.043 28.8244 67.0216C29.8995 66.9789 30.9131 66.7583 31.8721 66.2638C32.0815 66.1553 32.3226 66.109 32.5531 66.0432C33.2235 65.8564 33.9063 65.707 34.5626 65.4811C35.4354 65.1805 36.2607 64.7855 36.8554 64.0153C36.9628 63.8765 37.1845 63.7822 37.3658 63.7538C37.8021 63.688 38.0802 63.4407 38.3142 63.0902C38.4919 62.8252 38.7101 62.5868 38.8949 62.3253C39.333 61.7063 39.7642 61.0819 40.19 60.4557C40.2445 60.3757 40.2621 60.2689 40.2868 60.1729C40.4064 59.7264 40.4786 59.2603 40.6493 58.8351C40.9167 58.1645 40.7672 57.6219 40.285 57.1345C40.1865 57.0349 40.0791 56.9424 39.9929 56.8321C39.5548 56.2771 39.2099 55.642 38.6133 55.224C38.5377 55.1706 38.4814 55.0639 38.4567 54.9714C38.2861 54.3132 37.8585 53.9129 37.2514 53.6514C36.8678 53.486 36.6496 53.1729 36.5774 52.7246C36.5352 52.4703 36.3592 52.2034 36.1692 52.0184C35.7222 51.5826 35.5744 51.0863 35.6958 50.485C35.7222 50.3516 35.6994 50.2075 35.7082 50.067C35.7733 49.0281 35.1785 48.1013 35.2471 47.1051C34.8019 46.7191 34.7808 46.6782 34.2441 46.7013C33.3977 46.7369 32.5777 46.607 31.763 46.4078C31.3002 46.2939 30.8357 46.157 30.3658 46.1036C29.4086 45.9933 28.6484 45.5254 27.9481 44.8993C27.6225 44.6093 27.2653 44.3549 26.8835 44.0543C26.4066 44.2624 25.9209 44.4047 25.5092 44.6662C24.5678 45.2622 23.6527 45.9044 22.743 46.5483C22.2133 46.9219 21.7136 47.3381 21.1998 47.7348C20.9605 47.8771 20.7563 48.0657 20.5505 48.2525C20.0085 48.7452 19.551 49.2914 19.3697 50.0296C19.3328 50.1808 19.2589 50.3338 19.1639 50.4583C18.4969 51.3353 17.969 52.2603 18.0729 53.4273C18.0869 53.5838 18.05 53.7475 18.0218 53.9058C17.8617 54.7543 17.6981 55.6029 17.552 56.3607C17.6136 56.8161 17.6998 57.1897 17.7051 57.565C17.7174 58.2303 17.8863 58.8351 18.2383 59.3919C18.731 60.1729 19.1199 60.968 19.229 61.9304C19.3169 62.7042 19.741 63.3464 20.6367 63.5261C21.2702 63.6524 21.6538 64.1754 21.8931 64.7286C22.1042 65.216 22.3963 65.5344 22.8873 65.6643C22.9718 65.8173 23.0474 65.956 23.1178 66.0859C23.8023 66.2976 24.4675 66.5039 25.1344 66.7067C25.8189 66.9149 26.5034 67.1212 27.202 67.3311H27.1967ZM60.0689 7.79333C59.9034 7.37352 59.6923 7.04086 59.6536 6.68686C59.6096 6.29017 59.4811 6.03934 59.1116 5.92194C58.7861 5.82054 58.5661 5.61063 58.4165 5.30288C58.2846 5.03249 58.1192 4.77989 57.9766 4.51305C57.7426 4.07367 57.4118 3.74457 56.9666 3.52043C56.5918 3.33187 56.2046 3.1522 55.8721 2.90315C54.4098 1.80736 52.7891 1.25768 50.9609 1.3484C50.2412 1.38398 49.5232 1.34484 48.8317 1.11715C48.3619 0.962382 47.8973 0.958824 47.4169 1.04955C46.831 1.15984 46.2432 1.2897 45.652 1.32705C45.1329 1.35907 44.6296 1.35374 44.1475 1.61524C43.9117 1.74332 43.6108 1.79668 43.3398 1.80024C42.9245 1.80736 42.5743 1.96924 42.203 2.124C41.8441 2.27343 41.4464 2.39439 41.061 2.40506C40.5894 2.41752 40.2885 2.60786 40.0017 2.96008C39.7554 3.26249 39.4597 3.55779 39.1254 3.75169C38.2948 4.23199 37.6508 4.89907 37.0437 5.62842C36.7376 5.99665 36.5475 6.38801 36.4454 6.85408C36.2695 7.65814 36.0179 8.44797 35.8788 9.25914C35.7961 9.74122 35.812 10.2607 35.8929 10.7445C35.9967 11.3725 36.2079 11.9844 36.4138 12.7511C36.8818 13.2688 37.1423 14.0212 37.1053 14.8911C37.0648 15.841 37.4907 16.5348 38.3547 16.887C38.9037 17.1112 39.4897 17.2695 40.0721 17.3762C40.5155 17.4581 40.9203 17.5808 41.281 17.8494C41.6083 18.0931 41.9673 18.2177 42.3808 18.2657C43.1621 18.3564 43.8941 18.5859 44.4537 19.2192C44.6455 19.438 44.9217 19.5892 45.1786 19.7368C45.5728 19.9645 45.8737 20.258 46.062 20.685C46.1464 20.8789 46.2767 21.1101 46.4473 21.1955C47.014 21.4766 47.3483 21.9711 47.7196 22.4461C47.8815 22.6542 48.1067 22.8125 48.3355 23.0224C48.529 22.8392 48.6487 22.7094 48.7859 22.6026C49.0675 22.382 49.3297 22.0956 49.6499 21.9747C50.2852 21.7345 50.7075 21.2756 51.1052 20.7686C51.5803 20.1638 52.117 19.6337 52.7962 19.2583C53.3012 18.9808 53.8379 18.7318 53.9963 18.0825C54.0174 17.9935 54.1054 17.9135 54.1758 17.8441C54.6808 17.3584 55.1858 16.8728 55.6979 16.3961C56.1219 16.0011 56.6305 15.6756 56.9736 15.2202C57.8288 14.0835 58.6277 12.9005 59.4107 11.7105C59.6465 11.3511 59.8471 10.9171 59.8999 10.4973C60.0143 9.58646 60.0213 8.66143 60.0689 7.79155V7.79333ZM1.69925 42.6917C1.94032 43.0101 2.1462 43.2556 2.32393 43.5206C2.63539 43.9867 2.91165 44.4777 3.23543 44.9349C3.95513 45.947 4.69243 46.9468 5.42972 47.9465C5.52299 48.071 5.64792 48.1831 5.77814 48.2685C6.34475 48.6367 6.9096 49.0085 7.4938 49.3483C7.81758 49.5369 8.16775 49.6916 8.5232 49.809C8.88041 49.9264 9.25698 49.9923 9.63003 50.0545C11.402 50.3463 13.1229 50.3391 14.6468 49.1633C14.8615 48.9978 15.1413 48.852 15.4035 48.8253C16.1073 48.7559 16.6071 48.3503 17.1139 47.9216C17.9884 47.1798 18.9808 46.559 19.5105 45.4703C19.5668 45.3529 19.7093 45.28 19.8096 45.1821C19.9223 45.0701 20.0842 44.974 20.1334 44.837C20.3323 44.2909 20.7845 44.0632 21.242 43.7999C21.5605 43.6167 21.9582 43.3801 22.0761 43.0724C22.3295 42.4106 22.8169 42.0459 23.3624 41.7079C23.7178 41.4874 23.9589 41.1814 24.1314 40.8096C24.3337 40.372 24.1331 38.5291 23.8727 38.1253C23.7038 37.8638 23.5665 37.5702 23.4768 37.2714C23.373 36.9263 23.3483 36.558 23.2674 36.2058C23.1213 35.5797 23.146 34.9855 23.4029 34.3771C23.7302 33.598 23.5648 33.2315 22.8644 32.7548C22.472 32.4879 22.1113 32.1695 21.7593 31.8475C21.3194 31.4437 20.9253 30.9865 20.4678 30.6041C20.2496 30.4226 19.9416 30.3123 19.6583 30.2572C18.6641 30.0651 17.6787 29.784 16.6475 29.8908C16.512 29.905 16.3678 29.8783 16.234 29.8427C15.7554 29.72 15.2961 29.7929 14.8175 29.8819C14.1576 30.0046 13.4802 30.0348 12.8115 30.1042C12.5423 30.1327 12.2484 30.0971 12.0056 30.1949C11.578 30.3675 11.1715 30.4084 10.7245 30.3052C10.1175 30.1647 9.5614 30.259 9.02822 30.6432C8.59535 30.9545 8.10088 31.1911 7.60994 31.4028C6.73011 31.7799 5.84148 32.1446 4.93702 32.4541C4.41088 32.6338 3.98328 32.9327 3.55745 33.2671C2.49285 34.1067 2.0723 35.3306 1.62886 36.5403C1.59015 36.6452 1.6359 36.7804 1.6183 36.896C1.50393 37.6254 1.44058 38.3707 1.23998 39.0734C1.12208 39.4843 1.07457 39.8081 1.35084 40.1336C1.65526 40.4947 1.7274 40.9128 1.70629 41.3735C1.68517 41.8342 1.70101 42.2968 1.70101 42.6917H1.69925ZM25.4282 24.9098C26.0687 24.4438 26.3345 23.7927 26.3151 22.9851C26.3098 22.7485 26.4488 22.4763 26.5949 22.2753C27.3551 21.2435 28.1311 20.2225 28.9212 19.2121C29.1042 18.979 29.347 18.7887 29.581 18.6037C30.255 18.07 30.936 17.5434 31.6222 17.0258C31.8756 16.8337 32.0252 16.6113 32.078 16.284C32.1396 15.8891 32.2276 15.487 32.3754 15.1188C32.6235 14.5015 32.6868 13.8718 32.6323 13.2225C32.5619 12.3775 32.3296 11.634 31.6029 11.0736C31.1524 10.7267 30.7864 10.2393 30.804 9.70564C29.8907 8.85889 29.0303 8.08685 28.2032 7.28101C27.67 6.76335 27.0559 6.43782 26.3591 6.2119C25.1484 5.82054 23.8692 5.6978 22.6779 5.23351C22.5881 5.19793 22.4808 5.19971 22.3823 5.20504C21.9459 5.22995 21.5095 5.27798 21.0731 5.28509C20.517 5.29577 19.9504 5.34024 19.4067 5.25485C18.6219 5.13033 17.9567 5.30288 17.332 5.77785C16.4751 6.42892 15.5689 7.01596 14.7401 7.70083C13.9905 8.31989 13.3147 9.03322 12.6074 9.70742C12.5651 9.74834 12.5229 9.8017 12.5088 9.85685C12.3628 10.3959 11.9299 10.7089 11.5868 11.0985C11.3369 11.3814 11.0518 11.6713 10.9216 12.0129C10.5503 12.9824 10.2477 13.9803 9.90277 15.0174C10.0735 15.1455 10.1984 15.2718 10.348 15.3447C10.6172 15.4746 10.8952 15.5884 11.1803 15.6774C11.5956 15.8055 11.8032 16.083 11.849 16.5081C11.8841 16.8283 11.9493 17.1468 11.9598 17.467C11.9756 18.0149 12.2625 18.3938 12.7077 18.6197C13.1194 18.8278 13.4063 19.1338 13.6667 19.4967C14.2685 20.3328 14.953 21.0781 15.8504 21.6153C16.2569 21.859 16.6141 22.1935 16.9643 22.5208C17.8652 23.3622 18.8102 24.0987 20.0454 24.4011C20.7775 24.5808 21.4848 24.8761 22.1905 25.1553C22.5934 25.3154 22.963 25.5556 23.3554 25.7442C23.7143 25.9167 24.0786 26.075 24.4481 26.2245C24.6206 26.2938 24.8088 26.3241 25.0534 26.3899C25.1889 25.8616 25.3068 25.4008 25.4318 24.9134L25.4282 24.9098ZM47.0579 63.43C48.1859 64.2892 48.7877 64.3319 49.9156 63.6595C50.0863 63.5563 50.2623 63.4585 50.4207 63.3375C50.755 63.0813 51.121 63.0066 51.538 63.0049C52.1504 63.0013 52.761 62.9266 53.2396 62.891C53.7552 62.2097 54.1916 61.6404 54.6192 61.0623C54.7248 60.9182 54.804 60.7546 54.8849 60.5945C55.5325 59.303 56.1096 57.9741 57.0123 56.8285C57.5402 56.1579 57.9168 55.4001 58.0699 54.5533C58.1684 54.0019 58.3022 53.3988 57.9432 52.9132C57.5437 52.3706 57.3467 51.7889 57.2763 51.1343C57.2534 50.9191 57.1373 50.7163 57.088 50.501C56.7695 49.1046 55.8175 47.9999 55.3477 46.6746C55.316 46.5839 55.2509 46.4949 55.1805 46.4291C54.7582 46.0324 54.3253 45.6464 53.903 45.2497C53.5106 44.8833 53.1182 44.515 52.7416 44.1344C52.1645 43.5509 51.6278 42.9247 51.0207 42.375C50.7004 42.0851 50.2799 41.9036 50.0634 41.4945C49.6939 40.7989 49.034 40.5997 48.3425 40.436L47.6897 40.7616C47.5911 40.7296 47.4943 40.7064 47.4046 40.6655C46.5371 40.2759 46.435 40.2973 45.9423 41.1476C45.4021 42.0797 44.6613 42.8482 43.9029 43.5811C43.3398 44.1272 42.8084 44.6734 42.3385 45.3066C41.7139 46.1498 41.3584 47.1193 41.3426 48.1048C41.3232 49.3109 40.8939 50.4316 40.8604 51.6128C40.8323 52.5966 40.8059 53.5874 40.8903 54.5658C40.9801 55.6153 41.5133 56.4923 42.1538 57.3195C42.6148 57.9137 43.0758 58.5398 42.9808 59.3901C42.9474 59.6961 43.1726 59.8989 43.4207 60.0608C44.2355 60.5909 45.1346 60.9004 46.0761 61.0801C46.5424 61.169 46.838 61.3861 46.8943 61.8183C46.9647 62.3502 47.0052 62.8857 47.0597 63.4354L47.0579 63.43ZM58.1807 40.5979C59.1468 39.9237 60.0407 39.3527 60.8677 38.6981C61.3446 38.3209 61.7916 37.8549 62.1189 37.3425C62.7083 36.4175 63.1711 35.4124 63.7342 34.4696C64.0527 33.936 64.1759 33.3863 64.0774 32.7939C63.8908 31.6643 63.6533 30.5436 63.472 29.4122C63.421 29.0885 63.4632 28.7416 63.5107 28.4125C63.5829 27.9162 63.7219 27.4305 63.7782 26.9325C63.8011 26.735 63.7272 26.4842 63.611 26.3205C63.0585 25.5378 62.513 24.7622 61.6877 24.2125C61.0683 23.7998 60.4753 23.3444 59.7521 23.1612C58.7509 22.9086 57.7338 22.7129 56.7202 22.5208C56.5179 22.4817 56.2909 22.5653 56.0762 22.5991C55.7647 22.6489 55.455 22.7432 55.1436 22.7521C54.5277 22.7681 53.9206 22.9033 53.442 23.2484C52.6026 23.8532 51.6313 24.2819 50.9486 25.1091C50.8166 25.2692 50.5755 25.335 50.3995 25.4666C50.2183 25.6018 50.0546 25.7602 49.9139 25.8829C50.1057 26.5144 50.3186 27.0392 50.4171 27.5871C50.528 28.2008 50.5702 28.8234 50.8905 29.3802C50.938 29.4638 50.9609 29.5741 50.9573 29.6719C50.938 30.2679 50.9362 30.8674 50.8764 31.4615C50.8078 32.1322 50.887 32.7245 51.355 33.26C51.6243 33.5677 51.7721 33.9822 51.9832 34.3433C52.1645 34.6511 52.307 35.0086 52.5604 35.2381C52.9422 35.585 53.1604 35.9941 53.2414 36.4762C53.3276 36.9903 53.2977 37.5275 53.4191 38.031C53.6391 38.9489 53.9241 39.8508 54.2022 40.7545C54.2989 41.0658 54.4767 41.3379 54.8391 41.4607C55.4462 41.45 55.9108 40.9804 56.4809 40.8381C57.0739 40.6904 57.6986 40.6637 58.1755 40.6015L58.1807 40.5979ZM40.1742 51.6271C39.9947 50.9884 40.0316 50.3943 40.1918 49.8001C40.4733 48.7577 40.4452 47.6921 40.417 46.6266C40.4152 46.5536 40.366 46.4807 40.322 46.3669C39.7712 46.3722 39.187 46.1676 38.7031 46.5252C38.228 46.8756 37.7652 46.9859 37.1986 46.8507C36.9505 46.792 36.639 46.7173 36.4173 47.0446C36.4666 47.219 36.5457 47.4057 36.5704 47.6014C36.6355 48.096 36.7851 48.6118 36.7059 49.085C36.5 50.3231 36.8519 51.4225 37.3235 52.545C37.4872 52.6126 37.6455 52.7033 37.8145 52.7442C38.5694 52.931 39.1061 53.3259 39.2662 54.1531C39.3014 54.331 39.4685 54.484 39.5741 54.6494L39.7536 54.612C39.8117 54.2687 39.97 53.9058 39.9085 53.5856C39.7747 52.8954 39.8944 52.271 40.1742 51.6253V51.6271Z"
            fill="black" />
        <path
            d="M36.7599 45.7762C36.4731 45.3084 36.8585 44.6911 36.2655 44.4083C35.7675 44.4367 35.544 44.7623 35.4402 45.2105C35.3663 45.5236 35.324 45.8527 34.9475 46.0413C34.3615 45.9239 33.7421 45.7887 33.1192 45.6802C32.7866 45.6232 32.447 45.5806 32.1109 45.5912C31.6112 45.6055 31.1695 45.4596 30.7454 45.2177C30.4674 45.0593 30.1823 44.9152 29.9113 44.7462C29.3166 44.3762 28.7148 44.0276 28.0338 43.8372C27.849 43.7856 27.6924 43.638 27.5094 43.5277L27.3475 42.9851C27.168 42.9425 26.978 42.8962 26.707 42.8322C26.436 42.4639 26.1298 42.0512 25.7867 41.5852C25.9891 41.2614 26.1633 40.9768 26.3427 40.6993C26.5046 40.4484 26.7123 40.2207 26.8354 39.9521C27.0343 39.5145 26.9498 39.3651 26.4765 39.1214C25.8236 39.1356 25.7621 39.9557 25.1954 40.1087C24.9157 39.8205 24.9825 39.4807 25.0564 39.1854C25.2465 38.433 25.1515 37.7926 24.518 37.2838C24.4124 37.2002 24.3315 37.0703 24.2734 36.9458C24.0024 36.3641 24.335 34.6101 24.789 34.1547C24.9544 33.9893 25.1039 33.8061 25.2887 33.5997C25.1444 33.3435 25.0089 33.1265 24.8963 32.897C24.8013 32.7031 24.6676 32.4932 24.6693 32.2922C24.6816 31.4348 24.7327 30.5756 24.7837 29.7182C24.7925 29.5634 24.8312 29.3873 24.9157 29.261C25.5139 28.3822 25.7621 27.354 26.1404 26.3809C26.2055 26.212 26.2495 26.0305 26.3375 25.8757C26.6876 25.2531 26.8777 24.5878 26.9639 23.8763C26.9991 23.5845 27.124 23.291 27.2683 23.0313C27.6836 22.2753 28.1094 21.5263 28.7658 20.9375C29.1811 20.564 29.533 20.121 29.943 19.7421C30.4304 19.2903 31.0023 18.9825 31.6323 18.7477C32 18.6107 32.2957 18.2728 32.623 18.0237C33.1667 17.8298 33.7245 17.6199 34.2876 17.4349C34.4917 17.3673 34.7205 17.305 34.9281 17.3282C35.5387 17.3993 36.1652 17.4509 36.7494 17.6306C37.5588 17.8796 38.3735 17.997 39.2129 18.0415C39.5349 18.0593 39.8833 18.1714 40.1596 18.3403C41.0236 18.8705 41.9316 19.2387 42.9363 19.3917C43.2214 19.4361 43.4818 19.6816 43.7387 19.8577C44.0801 20.0908 44.4285 20.322 44.7312 20.6013C45.0637 20.9073 45.3928 21.2382 45.6444 21.6117C45.8943 21.9835 46.1407 22.3251 46.5155 22.5866C46.7548 22.752 46.9783 22.9868 47.1225 23.2394C47.8792 24.5611 48.6376 25.8864 49.3344 27.2419C49.5667 27.692 49.6265 28.2328 49.7568 28.7326C49.8078 28.9265 49.8043 29.14 49.8799 29.3197C50.2442 30.1682 50.0981 31.015 49.9169 31.8688C49.7497 32.648 49.6001 33.42 49.5438 34.2312C49.4787 35.1509 49.1374 36.0759 48.7784 36.9387C48.5303 37.5382 48.078 38.0612 47.661 38.5717C47.441 38.8403 47.1296 39.0769 46.8111 39.2103C45.7711 39.6462 45.1552 40.5143 44.5605 41.3913C44.2279 41.8822 43.8725 42.3092 43.3868 42.6543C43.0173 42.9158 42.6301 43.2271 42.4084 43.6095C41.9087 44.4723 41.108 44.7712 40.2405 44.949C39.5331 45.0949 38.8434 45.2443 38.2064 45.6108C37.7576 45.8687 37.2597 45.8758 36.7582 45.7727L36.7599 45.7762ZM42.1392 34.6243C41.6307 34.9481 41.511 35.19 41.7327 35.7735C41.9509 36.3481 41.8524 36.8302 41.5163 37.3051C41.1221 37.8619 40.7455 38.4312 40.3426 38.9809C39.4452 40.2083 38.15 40.5854 36.7335 40.6157C35.8203 40.6352 34.907 40.5356 33.992 40.5125C32.9696 40.4876 32.3414 40.0429 31.9314 39.0823C31.8188 38.819 31.5988 38.5948 31.4 38.3796C31.21 38.175 30.9513 38.0345 30.7788 37.8192C30.2509 37.1682 29.7494 36.4957 29.2198 35.8073C29.526 35.2896 29.4767 34.7933 29.1864 34.2703C29.0755 34.0711 29.1124 33.7616 29.1512 33.5125C29.2479 32.8721 29.0931 32.5679 28.4737 32.3047C27.9898 32.5092 27.8349 32.7405 27.8824 33.3311C27.9493 34.1689 27.9599 35.0317 28.6497 35.6668C28.7183 35.7308 28.75 35.8375 28.7975 35.9247C28.7887 36.2983 28.8168 36.6736 28.991 36.9565C29.3359 37.515 29.7477 38.0345 30.1559 38.5521C30.6134 39.1321 31.122 39.6728 31.5619 40.267C32.0933 40.9839 32.7937 41.3272 33.6524 41.3788C34.0096 41.4002 34.3703 41.3575 34.7275 41.3806C34.9809 41.3966 35.2501 41.4286 35.4771 41.53C36.1845 41.8484 36.8901 41.6599 37.5799 41.5229C38.1606 41.4073 38.7114 41.1529 39.2815 40.9786C39.79 40.8238 40.2792 40.6068 40.5819 40.1674C41.4758 38.8723 42.5756 37.7072 42.9627 36.0919C43.1475 35.3235 42.9469 34.8396 42.141 34.6226L42.1392 34.6243ZM38.8979 29.8854C39.9326 30.508 40.9127 31.0096 42.0495 30.3372C42.148 30.2785 42.28 30.2838 42.3926 30.2465C42.8589 30.0899 42.9944 29.6879 42.6864 29.3108C42.3134 28.8554 41.826 28.537 41.2347 28.6366C40.5361 28.7558 39.8534 28.9835 39.1689 29.1791C39.0668 29.2094 38.9876 29.3232 38.8979 29.398V29.8854ZM30.3935 25.9558C30.4287 26.6638 30.8369 26.9751 31.3754 27.1583C31.8012 27.3042 32.4892 27.0587 32.7673 26.6887C33.0259 26.3454 33.0083 25.7352 32.7303 25.3972C32.4822 25.0948 32.2464 25.0414 31.8874 25.2015C31.5443 25.3545 31.1941 25.4933 30.8563 25.6569C30.6873 25.7388 30.536 25.8615 30.3917 25.9576L30.3935 25.9558Z"
            fill="white" />
        <path
            d="M27.1949 67.331C26.4981 67.1211 25.8118 66.9148 25.1273 66.7066C24.4604 66.5038 23.7952 66.2957 23.1107 66.0858C23.0403 65.9559 22.9647 65.8172 22.8802 65.6642C22.3893 65.5326 22.0972 65.2159 21.886 64.7285C21.6467 64.1753 21.2631 63.6541 20.6296 63.526C19.7339 63.3463 19.3099 62.7041 19.2219 61.9303C19.1128 60.9679 18.7257 60.1728 18.2312 59.3918C17.8793 58.835 17.7103 58.2284 17.698 57.5649C17.691 57.1896 17.6048 56.816 17.5449 56.3606C17.691 55.6028 17.8546 54.7542 18.0148 53.9057C18.0447 53.7474 18.0799 53.5837 18.0658 53.4272C17.962 52.2585 18.4899 51.3352 19.1568 50.4582C19.25 50.3337 19.3257 50.1807 19.3626 50.0295C19.5439 49.2895 20.0014 48.7434 20.5434 48.2524C20.7493 48.0656 20.9534 47.877 21.1927 47.7347C21.7065 47.338 22.2063 46.9236 22.7359 46.5482C23.6474 45.9043 24.5607 45.2621 25.5021 44.6661C25.9139 44.4046 26.3995 44.2623 26.8764 44.0542C27.2582 44.3566 27.6172 44.6092 27.941 44.8992C28.6413 45.5236 29.4015 45.9932 30.3588 46.1035C30.8303 46.1569 31.2931 46.2938 31.7559 46.4077C32.5724 46.6069 33.3906 46.7386 34.237 46.7012C34.7737 46.6781 34.7948 46.719 35.24 47.105C35.1714 48.1012 35.7662 49.028 35.7011 50.0669C35.6923 50.2056 35.7169 50.3497 35.6888 50.4849C35.5673 51.0879 35.7151 51.5843 36.1621 52.0183C36.3521 52.2033 36.5281 52.4701 36.5703 52.7245C36.6442 53.1746 36.8624 53.4859 37.2443 53.6513C37.8514 53.9146 38.279 54.3131 38.4497 54.9713C38.4743 55.0638 38.5306 55.1723 38.6063 55.2239C39.2028 55.6419 39.5494 56.277 39.9858 56.832C40.0721 56.9423 40.1794 57.0348 40.2779 57.1344C40.7601 57.6218 40.9097 58.1644 40.6422 58.835C40.4733 59.262 40.3994 59.7263 40.2797 60.1728C40.2533 60.2688 40.2375 60.3773 40.1829 60.4556C39.7553 61.0818 39.326 61.7062 38.8878 62.3252C38.703 62.5867 38.4848 62.8251 38.3071 63.0901C38.0731 63.4406 37.7933 63.6879 37.3587 63.7537C37.1774 63.7804 36.9557 63.8746 36.8484 64.0152C36.2536 64.7854 35.4283 65.1803 34.5555 65.481C33.8992 65.7069 33.2164 65.8563 32.546 66.0431C32.3155 66.1071 32.0744 66.1552 31.865 66.2637C30.906 66.7582 29.8924 66.9788 28.8173 67.0215C28.2876 67.0428 27.7633 67.2172 27.1896 67.331H27.1949ZM38.0467 55.1563L38.0713 55.183L38.0449 55.1581L38.0203 55.1314L38.0467 55.1563Z"
            fill="#EB6023" />
        <path
            d="M60.0697 7.79343C60.0222 8.66331 60.0134 9.58834 59.9008 10.4991C59.848 10.919 59.6474 11.353 59.4116 11.7123C58.6286 12.9024 57.8297 14.0854 56.9745 15.2221C56.6313 15.6775 56.1228 16.0048 55.6987 16.3979C55.1867 16.8747 54.6816 17.3603 54.1766 17.846C54.1045 17.9153 54.0183 17.9954 53.9971 18.0843C53.8388 18.7336 53.3021 18.9809 52.7971 19.2602C52.1196 19.6338 51.5811 20.1639 51.106 20.7705C50.7083 21.2792 50.286 21.7364 49.6508 21.9766C49.3305 22.0975 49.0683 22.3839 48.7868 22.6045C48.6495 22.7112 48.5316 22.8411 48.3363 23.0243C48.1076 22.8144 47.8823 22.6561 47.7204 22.448C47.3492 21.973 47.0166 21.4802 46.4482 21.1974C46.2758 21.112 46.1473 20.8808 46.0628 20.6869C45.8746 20.2599 45.5737 19.9664 45.1795 19.7387C44.9226 19.5911 44.6463 19.4381 44.4545 19.221C43.8949 18.5878 43.1629 18.3583 42.3816 18.2676C41.9664 18.2195 41.6091 18.095 41.2819 17.8513C40.9194 17.5827 40.5164 17.4599 40.073 17.3781C39.4905 17.2696 38.9046 17.1113 38.3555 16.8889C37.4898 16.5367 37.0657 15.8429 37.1062 14.893C37.1431 14.0231 36.8845 13.2689 36.4146 12.753C36.2105 11.9845 35.9976 11.3743 35.8938 10.7464C35.8146 10.2625 35.7988 9.7431 35.8797 9.26102C36.017 8.44985 36.2703 7.66002 36.4463 6.85596C36.5484 6.39166 36.7384 5.99853 37.0446 5.6303C37.6517 4.90095 38.2957 4.23387 39.1263 3.75357C39.4606 3.55967 39.7545 3.26615 40.0026 2.96196C40.2894 2.60974 40.5903 2.41939 41.0619 2.40694C41.4455 2.39627 41.8432 2.2753 42.2039 2.12588C42.5752 1.97111 42.9236 1.81101 43.3407 1.80212C43.6134 1.79678 43.9125 1.74519 44.1483 1.61711C44.6305 1.35562 45.1337 1.36273 45.6528 1.32893C46.2441 1.29158 46.8318 1.16172 47.4178 1.05143C47.8982 0.960702 48.361 0.96426 48.8325 1.11902C49.5241 1.34672 50.2403 1.38586 50.9617 1.35028C52.79 1.25778 54.4107 1.80746 55.8729 2.90503C56.2055 3.15408 56.5926 3.33375 56.9674 3.52231C57.4126 3.74645 57.7435 4.07555 57.9775 4.51493C58.1183 4.77999 58.2854 5.03437 58.4174 5.30476C58.567 5.61251 58.7869 5.82242 59.1125 5.92382C59.482 6.03944 59.6087 6.29205 59.6544 6.68874C59.6949 7.04274 59.9043 7.37539 60.0697 7.79521V7.79343Z"
            fill="#E0E455" />
        <path
            d="M1.69892 42.6916C1.69892 42.2966 1.68132 41.8341 1.70419 41.3734C1.72531 40.9127 1.65492 40.4946 1.34874 40.1335C1.07248 39.8062 1.11999 39.4842 1.23788 39.0733C1.44025 38.3688 1.50183 37.6235 1.61621 36.8959C1.63381 36.7785 1.58982 36.6451 1.62677 36.5401C2.0702 35.3305 2.49076 34.1066 3.55535 33.267C3.97943 32.9325 4.40879 32.6337 4.93493 32.454C5.83939 32.1445 6.72802 31.7798 7.60785 31.4027C8.09879 31.191 8.59325 30.9544 9.02613 30.6431C9.55931 30.2589 10.1171 30.1628 10.7224 30.3051C11.1694 30.4101 11.5759 30.3674 12.0035 30.1948C12.2445 30.097 12.5384 30.1326 12.8094 30.1041C13.4798 30.0347 14.1555 30.0045 14.8154 29.8817C15.294 29.7928 15.7533 29.7199 16.2319 29.8426C16.3657 29.8764 16.51 29.9031 16.6454 29.8906C17.6766 29.7839 18.662 30.065 19.6562 30.2571C19.9395 30.3122 20.2475 30.4225 20.4657 30.604C20.9232 30.9864 21.3173 31.4436 21.7573 31.8474C22.1092 32.1694 22.4699 32.486 22.8623 32.7547C23.5627 33.2332 23.7281 33.5979 23.4008 34.377C23.1456 34.9854 23.121 35.5795 23.2653 36.2057C23.348 36.5579 23.3709 36.9262 23.4747 37.2713C23.5644 37.5701 23.7017 37.8636 23.8706 38.1251C24.131 38.5272 24.3316 40.3701 24.1293 40.8095C23.9568 41.1831 23.7158 41.489 23.3603 41.7078C22.8166 42.0458 22.3291 42.4105 22.074 43.0722C21.9561 43.38 21.5584 43.6166 21.2399 43.7998C20.7824 44.0631 20.3302 44.2926 20.1313 44.8369C20.0821 44.9739 19.9202 45.0699 19.8076 45.182C19.709 45.2799 19.5665 45.3546 19.5084 45.4702C18.9788 46.5607 17.9863 47.1797 17.1118 47.9215C16.6067 48.3502 16.1052 48.7558 15.4014 48.8252C15.1392 48.8519 14.8594 48.996 14.6447 49.1632C13.1209 50.339 11.3999 50.3461 9.62793 50.0544C9.25489 49.9939 8.87832 49.9263 8.52111 49.8089C8.16566 49.6933 7.81549 49.5367 7.49171 49.3482C6.9075 49.0084 6.34265 48.6366 5.77604 48.2684C5.64583 48.183 5.52089 48.0727 5.42763 47.9464C4.69033 46.9467 3.95128 45.9469 3.23334 44.9347C2.90956 44.4776 2.63329 43.9866 2.32183 43.5205C2.14411 43.2555 1.93823 43.01 1.69716 42.6916H1.69892Z"
            fill="white" />
        <path
            d="M25.4294 24.9081C25.3044 25.3937 25.1865 25.8562 25.051 26.3846C24.8065 26.3187 24.6182 26.2885 24.4457 26.2191C24.078 26.0715 23.7119 25.9114 23.353 25.7388C22.9606 25.5503 22.591 25.3083 22.1881 25.15C21.4842 24.8707 20.7768 24.5772 20.0431 24.3958C18.8095 24.0916 17.8628 23.3569 16.9619 22.5155C16.6117 22.1881 16.2528 21.8537 15.848 21.61C14.9524 21.071 14.2679 20.3256 13.6643 19.4913C13.4021 19.1284 13.117 18.8243 12.7053 18.6143C12.2601 18.3884 11.9733 18.0113 11.9574 17.4616C11.9486 17.1414 11.8818 16.823 11.8466 16.5028C11.8008 16.0776 11.5932 15.8019 11.1779 15.6721C10.8928 15.5831 10.6148 15.4693 10.3456 15.3394C10.196 15.2682 10.0711 15.1419 9.90039 15.0121C10.2453 13.9768 10.5462 12.9788 10.9192 12.0075C11.0494 11.666 11.3345 11.3742 11.5844 11.0932C11.9275 10.7054 12.3604 10.3905 12.5064 9.85152C12.5205 9.79637 12.5628 9.743 12.605 9.70209C13.3124 9.02789 13.9863 8.31633 14.7377 7.6955C15.5665 7.01062 16.4727 6.42359 17.3297 5.77251C17.9561 5.29755 18.6195 5.125 19.4043 5.24952C19.948 5.3349 20.5146 5.29043 21.0707 5.27976C21.5071 5.27086 21.9435 5.22283 22.3799 5.19971C22.4784 5.19437 22.5858 5.19259 22.6755 5.22817C23.8668 5.69246 25.1461 5.81521 26.3567 6.20656C27.0535 6.43248 27.6694 6.75802 28.2008 7.27568C29.0296 8.08152 29.8901 8.85356 30.8016 9.70031C30.784 10.234 31.15 10.7214 31.6005 11.0683C32.3272 11.6269 32.5595 12.3704 32.6299 13.2172C32.6844 13.8665 32.6193 14.4962 32.373 15.1135C32.2252 15.4817 32.1372 15.8837 32.0756 16.2787C32.0246 16.606 31.8732 16.8283 31.6198 17.0205C30.9336 17.5381 30.2526 18.0647 29.5786 18.5983C29.3446 18.7833 29.1 18.9737 28.9188 19.2067C28.1287 20.2171 27.3527 21.2364 26.5925 22.27C26.4447 22.4692 26.3057 22.7432 26.3127 22.9798C26.3321 23.7891 26.0681 24.4384 25.4259 24.9045L25.4294 24.9081Z"
            fill="#4CB75D" />
        <path
            d="M47.0579 63.4281C47.0034 62.8767 46.9612 62.3412 46.8925 61.8111C46.8362 61.3789 46.5406 61.1618 46.0743 61.0729C45.1311 60.8932 44.2319 60.5837 43.419 60.0536C43.1709 59.8917 42.9456 59.6889 42.9791 59.3829C43.0741 58.5326 42.613 57.9065 42.152 57.3123C41.5097 56.4851 40.9766 55.6099 40.8886 54.5586C40.8059 53.5802 40.8305 52.5893 40.8587 51.6056C40.8939 50.4244 41.3232 49.3037 41.3408 48.0976C41.3567 47.1121 41.7103 46.1426 42.3368 45.2994C42.8066 44.6661 43.338 44.1182 43.9011 43.5739C44.6578 42.841 45.3986 42.0725 45.9406 41.1404C46.4333 40.2901 46.5353 40.2705 47.4028 40.6583C47.4926 40.6992 47.5894 40.7206 47.6879 40.7544L48.3407 40.4288C49.034 40.5907 49.6939 40.7917 50.0617 41.4873C50.2781 41.8964 50.6987 42.0761 51.0189 42.3678C51.626 42.9175 52.1627 43.5437 52.7399 44.1271C53.1182 44.5096 53.5106 44.8761 53.9013 45.2425C54.3236 45.6392 54.7564 46.0252 55.1788 46.4219C55.2491 46.4877 55.3143 46.5767 55.3459 46.6674C55.8158 47.9945 56.766 49.0974 57.0862 50.4938C57.1355 50.7091 57.2516 50.9118 57.2745 51.1271C57.3467 51.7817 57.542 52.3634 57.9414 52.906C58.3004 53.3916 58.1667 53.9947 58.0681 54.5461C57.915 55.3929 57.5385 56.1507 57.0106 56.8213C56.1079 57.9669 55.5307 59.2958 54.8831 60.5872C54.8022 60.7473 54.723 60.9128 54.6174 61.0551C54.1916 61.6332 53.7534 62.2025 53.2379 62.8838C52.7592 62.9194 52.1486 62.9941 51.5363 62.9977C51.1192 62.9994 50.7515 63.0741 50.4189 63.3303C50.2605 63.4513 50.0863 63.5509 49.9139 63.6523C48.7877 64.3247 48.1859 64.282 47.0562 63.4228L47.0579 63.4281Z"
            fill="white" />
        <path
            d="M58.1815 40.5961C57.7047 40.6584 57.08 40.685 56.487 40.8327C55.9168 40.975 55.454 41.4446 54.8452 41.4553C54.4827 41.3343 54.305 41.0604 54.2082 40.7491C53.9302 39.8472 53.6451 38.9435 53.4252 38.0256C53.3037 37.5222 53.3337 36.9849 53.2474 36.4708C53.1665 35.9888 52.9483 35.5796 52.5664 35.2327C52.3131 35.0033 52.1705 34.6457 51.9893 34.338C51.7764 33.9768 51.6286 33.5641 51.3611 33.2546C50.893 32.7174 50.8138 32.1268 50.8825 31.4561C50.9423 30.8638 50.9458 30.2643 50.9634 29.6666C50.9669 29.5705 50.944 29.4584 50.8965 29.3748C50.5763 28.818 50.534 28.1954 50.4232 27.5817C50.3246 27.0356 50.1117 26.509 49.9199 25.8775C50.0607 25.7548 50.2243 25.5947 50.4056 25.4613C50.5816 25.3314 50.8209 25.2656 50.9546 25.1037C51.6373 24.2765 52.6087 23.8478 53.448 23.243C53.9267 22.8979 54.5337 22.7627 55.1496 22.7467C55.4611 22.7378 55.7708 22.6435 56.0822 22.5937C56.2969 22.5599 56.5222 22.4781 56.7263 22.5154C57.7416 22.7075 58.7569 22.9032 59.7582 23.1558C60.4814 23.3373 61.0744 23.7944 61.6938 24.2072C62.5191 24.7568 63.0663 25.5342 63.6171 26.3151C63.7332 26.4788 63.8071 26.7296 63.7843 26.9271C63.728 27.4234 63.5872 27.9108 63.5168 28.4071C63.4693 28.7362 63.4253 29.0831 63.4781 29.4069C63.6593 30.5365 63.8969 31.6589 64.0834 32.7885C64.1802 33.3791 64.0588 33.9306 63.7403 34.4643C63.1772 35.4071 62.7126 36.4121 62.1249 37.3372C61.7994 37.8495 61.3507 38.3156 60.8738 38.6927C60.045 39.3473 59.1511 39.9183 58.1868 40.5925L58.1815 40.5961Z"
            fill="white" />
        <path
            d="M40.1768 51.6252C39.897 52.2692 39.7773 52.8954 39.9111 53.5856C39.9727 53.9058 39.8143 54.2687 39.7562 54.612L39.5767 54.6494C39.4712 54.4857 39.3022 54.3327 39.2688 54.1531C39.1087 53.3276 38.572 52.9327 37.8171 52.7442C37.6482 52.7015 37.4898 52.6125 37.3261 52.5449C36.8546 51.4225 36.5026 50.3231 36.7085 49.085C36.7877 48.61 36.6381 48.0941 36.573 47.6014C36.5466 47.4057 36.4692 47.2189 36.4199 47.0446C36.6416 46.7155 36.9531 46.792 37.2012 46.8507C37.7678 46.9841 38.2306 46.8756 38.7057 46.5252C39.1896 46.1694 39.7738 46.3739 40.3246 46.3668C40.3686 46.4825 40.4179 46.5536 40.4196 46.6266C40.4478 47.6921 40.4777 48.7577 40.1944 49.8001C40.0343 50.3943 39.9973 50.9866 40.1768 51.627V51.6252Z"
            fill="white" />
        <path
            d="M42.1378 34.6243C42.9437 34.8413 43.1443 35.3252 42.9595 36.0937C42.5724 37.7071 41.4726 38.8741 40.5787 40.1691C40.2761 40.6085 39.7869 40.8237 39.2783 40.9803C38.7082 41.1546 38.1574 41.409 37.5767 41.5246C36.8887 41.6616 36.1831 41.8502 35.4739 41.5317C35.247 41.4286 34.9777 41.3983 34.7243 41.3823C34.3671 41.3592 34.0064 41.4019 33.6492 41.3805C32.7905 41.3289 32.0901 40.9856 31.5587 40.2687C31.1188 39.6746 30.6103 39.1338 30.1527 38.5539C29.7445 38.0362 29.3327 37.5186 28.9879 36.9582C28.8136 36.6754 28.7855 36.3 28.7943 35.9264C28.745 35.8393 28.7151 35.7325 28.6465 35.6685C27.9567 35.0334 27.9461 34.1707 27.8793 33.3328C27.8318 32.7422 27.9866 32.511 28.4705 32.3064C29.0899 32.5697 29.2465 32.8739 29.148 33.5143C29.1093 33.7633 29.0741 34.0728 29.1832 34.2721C29.4735 34.7951 29.5228 35.2914 29.2166 35.809C29.748 36.4975 30.2478 37.1717 30.7757 37.821C30.9499 38.0344 31.2085 38.1767 31.3968 38.3813C31.5957 38.5966 31.8156 38.8207 31.9282 39.084C32.3382 40.0446 32.9664 40.4893 33.9888 40.5142C34.9038 40.5373 35.8171 40.637 36.7303 40.6174C38.1469 40.5871 39.442 40.21 40.3394 38.9826C40.7424 38.4329 41.1172 37.8619 41.5131 37.3069C41.8492 36.8319 41.9477 36.3498 41.7295 35.7752C41.5078 35.1935 41.6292 34.9498 42.136 34.6261L42.1378 34.6243Z"
            fill="black" />
        <path
            d="M38.8965 29.8872V29.3998C38.9862 29.3251 39.0654 29.2112 39.1675 29.181C39.852 28.9853 40.5347 28.7576 41.2333 28.6384C41.8246 28.5388 42.312 28.8572 42.685 29.3126C42.993 29.6898 42.8575 30.09 42.3912 30.2483C42.2785 30.2857 42.1466 30.2821 42.048 30.3391C40.9113 31.0115 39.9329 30.5098 38.8965 29.8872Z"
            fill="black" />
        <path
            d="M30.3926 25.9559C30.5369 25.8598 30.6882 25.7371 30.8571 25.6552C31.195 25.4916 31.5452 25.3528 31.8883 25.1998C32.2473 25.0397 32.4831 25.0931 32.7312 25.3955C33.0092 25.7353 33.0268 26.3437 32.7681 26.687C32.4883 27.0588 31.8021 27.3025 31.3762 27.1566C30.8378 26.9734 30.4295 26.6603 30.3943 25.9541L30.3926 25.9559Z"
            fill="black" />
        <path d="M38.0479 55.1565L38.0215 55.1316L38.0461 55.1583L38.0479 55.1565Z" fill="black" />
        <path d="M38.0449 55.1583L38.0713 55.1832L38.0467 55.1565L38.0449 55.1583Z" fill="black" />
    </g>
    <defs>
        <clipPath id="clip0_1272_5">
            <rect width="65" height="68" fill="white" />
        </clipPath>
    </defs>
</svg>
    